<!DOCTYPE svg PUBLIC "-//W3C//DTD SVG 20010904//EN" "http://www.w3.org/TR/2001/REC-SVG-20010904/DTD/svg10.dtd">
<svg version="1.0" xmlns="http://www.w3.org/2000/svg" width="200px" height="200px" viewBox="0 0 2000 2000" preserveAspectRatio="xMidYMid meet">
<g id="layer101" fill="#060606" stroke="none">
<path d="M0 1000 l0 -1000 1000 0 1000 0 0 1000 0 1000 -1000 0 -1000 0 0 -1000z"/>
</g>
<g id="layer102" fill="#000000" stroke="none">
<path d="M0 1000 l0 -1000 1000 0 1000 0 0 1000 0 1000 -1000 0 -1000 0 0 -1000z m550 808 c41 -11 89 -26 105 -33 17 -7 95 -34 175 -60 286 -94 328 -108 541 -185 118 -43 226 -80 239 -82 21 -3 28 -15 51 -91 15 -48 37 -99 48 -113 20 -26 28 -58 56 -219 15 -92 12 -152 -16 -310 -10 -58 -42 -145 -53 -145 -3 0 3 20 14 45 24 57 44 244 37 346 -7 83 -45 204 -84 261 -13 20 -35 67 -47 104 l-23 67 -67 19 c-71 19 -578 216 -586 228 -6 8 -272 111 -390 150 -102 35 -118 36 -137 13 -9 -11 -12 -12 -7 -3 21 43 16 43 144 8z m-215 -871 c27 -82 47 -162 49 -197 2 -33 10 -68 17 -77 8 -10 23 -29 34 -43 28 -36 264 -271 300 -298 92 -71 215 -111 345 -113 77 -2 80 -2 35 -9 -194 -28 -423 63 -580 232 -138 147 -175 213 -175 313 0 28 -17 110 -40 190 -22 77 -40 142 -40 144 0 17 16 -24 55 -142z m1355 -381 c0 -2 -8 -10 -17 -17 -16 -13 -17 -12 -4 4 13 16 21 21 21 13z m-30 -39 c0 -2 -10 -12 -22 -23 l-23 -19 19 23 c18 21 26 27 26 19z"/>
</g>
<g id="layer103" fill="#202121" stroke="none">
<path d="M0 1000 l0 -1000 1000 0 1000 0 0 1000 0 1000 -1000 0 -1000 0 0 -1000z m490 825 c42 -8 127 -33 155 -46 11 -5 128 -44 260 -88 132 -43 339 -115 461 -159 121 -44 231 -82 244 -84 21 -3 28 -15 52 -92 15 -49 34 -96 42 -105 23 -25 33 -59 55 -189 18 -104 20 -135 11 -210 -22 -192 -47 -265 -120 -342 l-42 -45 36 45 c76 96 98 180 100 385 1 118 -2 137 -27 210 -16 44 -40 96 -54 117 -13 20 -35 67 -47 104 l-23 67 -67 19 c-70 19 -497 185 -606 235 -75 35 -301 120 -409 154 l-73 24 -43 -48 c-24 -26 -47 -47 -51 -47 -5 0 8 17 28 38 19 20 38 45 42 55 4 12 12 17 23 13 10 -2 34 -8 53 -11z m-223 -702 c-4 -3 -7 0 -7 7 0 7 3 10 7 7 3 -4 3 -10 0 -14z m68 -178 c29 -86 48 -162 50 -196 4 -85 12 -96 195 -279 163 -163 193 -185 315 -232 51 -19 79 -23 189 -23 127 0 128 0 75 -13 -66 -16 -203 -9 -278 13 -154 47 -265 123 -398 274 -92 105 -126 174 -124 252 1 29 -16 107 -44 204 -65 228 -57 228 20 0z"/>
</g>
<g id="layer104" fill="#302f2f" stroke="none">
<path d="M0 1000 l0 -1000 1000 0 1000 0 0 1000 0 1000 -1000 0 -1000 0 0 -1000z m505 821 c90 -21 590 -190 916 -309 91 -33 176 -62 189 -64 21 -3 28 -15 52 -92 15 -49 34 -96 42 -105 23 -25 33 -59 56 -191 18 -108 20 -136 10 -211 -23 -193 -48 -263 -120 -339 l-42 -45 36 45 c77 96 99 181 99 385 1 116 -2 138 -27 210 -15 44 -38 96 -52 117 -14 20 -36 67 -48 104 l-23 67 -67 19 c-70 19 -497 185 -606 235 -75 35 -301 120 -409 154 l-73 24 -43 -48 c-24 -26 -47 -47 -51 -47 -5 0 8 17 28 38 19 20 38 45 41 55 5 12 13 16 29 12 13 -3 41 -9 63 -14z m-238 -698 c-4 -3 -7 0 -7 7 0 7 3 10 7 7 3 -4 3 -10 0 -14z m73 -193 c35 -106 50 -163 46 -183 -12 -60 15 -98 194 -277 142 -142 150 -149 223 -189 97 -54 150 -66 286 -66 122 0 123 0 70 -13 -66 -16 -203 -9 -278 13 -154 47 -265 123 -398 274 -93 106 -127 175 -124 253 0 29 -16 105 -44 204 -25 86 -45 159 -45 163 1 17 23 -38 70 -179z"/>
</g>
<g id="layer105" fill="#453c3c" stroke="none">
<path d="M0 1000 l0 -1000 1000 0 1000 0 0 1000 0 1000 -1000 0 -1000 0 0 -1000z m570 805 c114 -35 548 -183 796 -273 121 -44 231 -82 244 -84 21 -3 28 -15 51 -90 15 -47 36 -99 47 -115 23 -31 32 -62 58 -208 18 -97 18 -102 -2 -240 -24 -160 -45 -213 -112 -283 -43 -46 -40 -32 4 18 46 51 70 128 84 268 11 109 11 145 1 200 -19 95 -48 181 -77 224 -14 20 -36 67 -48 104 l-23 67 -67 19 c-65 18 -491 183 -597 231 -72 32 -393 152 -448 167 l-44 12 -47 -51 c-26 -28 -51 -51 -55 -51 -5 0 7 17 27 38 20 20 41 47 47 60 14 26 34 25 161 -13z m-250 -109 c0 -3 -5 -8 -12 -12 -7 -4 -8 -3 -4 4 7 12 16 16 16 8z m14 -746 c39 -117 55 -179 55 -213 -2 -64 24 -101 186 -262 152 -153 157 -156 244 -201 95 -48 193 -68 310 -62 113 7 81 -9 -40 -19 -191 -15 -402 75 -554 239 -139 148 -178 215 -177 303 1 31 -16 110 -44 210 -57 201 -58 204 -45 185 5 -8 34 -89 65 -180z"/>
</g>
<g id="layer106" fill="#000000" stroke="none">
<path d="M0 1000 l0 -1000 1000 0 1000 0 0 1000 0 1000 -1000 0 -1000 0 0 -1000z m570 805 c114 -35 548 -183 796 -273 121 -44 231 -82 244 -84 21 -3 28 -15 51 -90 15 -47 36 -99 47 -115 23 -31 32 -62 58 -208 18 -97 18 -102 -2 -240 -24 -160 -45 -213 -112 -283 -43 -46 -40 -32 4 18 46 51 70 128 84 268 11 109 11 145 1 200 -19 95 -48 181 -77 224 -14 20 -36 67 -48 104 l-23 67 -67 19 c-65 18 -491 183 -597 231 -71 32 -392 152 -447 167 l-43 11 -54 -56 c-30 -31 -69 -76 -85 -101 -17 -24 -33 -44 -35 -44 -10 0 42 76 85 123 26 29 52 62 59 75 14 26 34 25 161 -13z m-245 -830 c48 -138 64 -200 63 -236 -1 -66 24 -102 187 -264 152 -153 157 -156 244 -201 95 -48 193 -68 310 -62 113 7 81 -9 -40 -19 -191 -15 -402 75 -554 239 -140 149 -178 215 -177 305 1 29 -10 88 -24 135 -14 46 -36 124 -50 175 -13 51 -27 100 -31 110 -3 10 -3 15 1 12 4 -4 36 -91 71 -194z m1275 -528 c0 -2 -10 -12 -22 -23 l-23 -19 19 23 c18 21 26 27 26 19z"/>
</g>
<g id="layer107" fill="#515050" stroke="none">
<path d="M0 1000 l0 -1000 1000 0 1000 0 0 1000 0 1000 -1000 0 -1000 0 0 -1000z m580 804 c41 -12 102 -32 135 -45 33 -12 143 -50 245 -84 102 -35 284 -99 406 -143 121 -44 231 -82 244 -84 21 -3 28 -15 51 -90 15 -47 36 -99 47 -115 23 -31 32 -62 58 -207 17 -94 17 -107 2 -225 -20 -151 -43 -219 -100 -288 -54 -65 -72 -69 -23 -5 59 77 76 126 93 266 13 109 13 142 3 205 -16 98 -46 186 -77 233 -14 20 -36 67 -48 104 l-23 67 -67 19 c-60 16 -481 178 -587 226 -70 31 -327 129 -417 157 l-81 27 -57 -59 c-31 -32 -69 -77 -85 -100 -17 -24 -32 -43 -34 -43 -10 0 42 76 85 123 26 29 52 62 59 75 11 21 17 23 54 16 23 -3 76 -17 117 -30z m-284 -740 c65 -180 94 -280 94 -326 0 -64 51 -136 197 -278 148 -144 150 -145 247 -190 103 -48 193 -64 305 -57 64 5 80 3 61 -4 -14 -6 -68 -13 -120 -16 -117 -6 -202 12 -315 67 -102 49 -178 111 -282 229 -91 104 -138 197 -129 256 4 22 -12 95 -49 225 -30 106 -55 195 -55 198 0 16 13 -14 46 -104z m1304 -617 c0 -2 -10 -12 -22 -23 l-23 -19 19 23 c18 21 26 27 26 19z"/>
</g>
<g id="layer108" fill="#000000" stroke="none">
<path d="M0 1000 l0 -1000 1000 0 1000 0 0 1000 0 1000 -1000 0 -1000 0 0 -1000z m530 819 c83 -22 507 -168 841 -289 118 -43 226 -80 239 -82 21 -3 28 -15 51 -90 15 -47 37 -99 49 -115 14 -20 30 -74 48 -160 25 -125 26 -134 14 -245 -16 -138 -32 -204 -65 -261 -31 -52 -157 -190 -166 -182 -3 4 2 11 11 16 24 14 134 161 153 205 8 20 23 97 32 171 16 128 16 139 -2 226 -20 104 -45 175 -75 215 -11 15 -31 59 -44 96 l-23 69 -79 23 c-43 12 -248 90 -454 172 -206 82 -430 169 -497 192 l-122 42 -63 -67 c-35 -37 -73 -83 -86 -101 -12 -19 -25 -34 -27 -34 -11 0 50 87 90 131 23 25 48 55 54 67 14 27 27 27 121 1z m-196 -860 c38 -115 56 -182 56 -217 0 -69 47 -137 202 -287 191 -186 303 -240 498 -240 58 1 119 4 135 7 29 7 28 6 -5 -9 -53 -25 -276 -25 -350 1 -146 49 -257 128 -384 271 -95 108 -129 175 -133 262 -1 40 -21 126 -53 235 -77 265 -60 252 34 -23z"/>
</g>
<g id="layer109" fill="#db2e30" stroke="none">
<path d="M0 1000 l0 -1000 1000 0 1000 0 0 1000 0 1000 -1000 0 -1000 0 0 -1000z m545 816 c94 -28 511 -172 822 -285 121 -43 230 -81 243 -83 21 -3 28 -15 51 -90 15 -47 36 -99 48 -115 25 -35 59 -172 67 -273 9 -109 -19 -288 -56 -365 -31 -64 -130 -180 -183 -216 -26 -17 -23 -13 13 23 62 62 130 151 151 198 10 22 26 101 35 177 16 130 16 140 -1 227 -20 103 -45 174 -75 214 -11 15 -31 59 -44 96 l-23 69 -79 23 c-43 12 -248 90 -454 172 -206 83 -430 168 -496 191 l-122 42 -63 -66 c-35 -37 -75 -84 -88 -106 -13 -22 -26 -38 -29 -35 -7 8 53 97 88 131 17 17 40 45 52 63 24 39 36 39 143 8z m-284 -653 c59 -147 122 -349 129 -411 6 -61 14 -82 44 -126 51 -75 270 -284 338 -324 102 -60 190 -85 303 -86 55 -1 120 2 145 6 l45 7 -40 -15 c-22 -9 -87 -18 -145 -21 -126 -7 -197 8 -315 66 -101 50 -178 112 -279 226 -94 107 -136 189 -136 267 0 44 -53 253 -105 417 -9 31 4 26 16 -6z"/>
</g>
<g id="layer110" fill="#e92628" stroke="none">
<path d="M0 1000 l0 -1000 1000 0 1000 0 0 1000 0 1000 -1000 0 -1000 0 0 -1000z m545 816 c94 -28 511 -172 822 -285 121 -43 230 -81 243 -83 21 -3 28 -15 51 -90 15 -47 36 -99 48 -115 25 -35 59 -172 67 -273 9 -109 -19 -288 -56 -365 -31 -64 -130 -180 -183 -216 -26 -17 -23 -13 13 23 62 62 130 151 151 198 10 22 26 101 35 177 16 130 16 140 -1 227 -20 103 -45 174 -75 214 -11 15 -31 59 -44 96 l-23 69 -79 23 c-43 12 -248 90 -454 172 -206 83 -430 168 -496 191 l-122 42 -63 -66 c-35 -37 -75 -84 -88 -106 -13 -22 -26 -38 -29 -35 -7 8 53 97 88 131 17 17 40 45 52 63 24 39 36 39 143 8z m-268 -543 c-4 -3 -7 0 -7 7 0 7 3 10 7 7 3 -4 3 -10 0 -14z m210 -80 c-4 -3 -10 -3 -14 0 -3 4 0 7 7 7 7 0 10 -3 7 -7z m-226 -30 c59 -147 122 -349 129 -411 6 -61 14 -82 44 -126 51 -75 270 -284 338 -324 102 -60 190 -85 303 -86 55 -1 120 2 145 6 l45 7 -40 -15 c-22 -9 -87 -18 -145 -21 -126 -7 -197 8 -315 66 -101 50 -178 112 -279 226 -94 107 -136 189 -136 267 0 44 -53 253 -105 417 -9 31 4 26 16 -6z m193 -179 c15 -47 26 -88 24 -90 -3 -2 -14 27 -25 64 -32 100 -35 112 -30 112 3 0 17 -39 31 -86z m-61 11 l6 -30 -14 30 c-16 34 -21 72 -6 45 5 -8 11 -28 14 -45z m1090 8 c-7 -2 -19 -2 -25 0 -7 3 -2 5 12 5 14 0 19 -2 13 -5z m-1126 -20 c-4 -3 -7 0 -7 7 0 7 3 10 7 7 3 -4 3 -10 0 -14z m16 -33 c3 -11 1 -18 -4 -14 -5 3 -9 12 -9 20 0 20 7 17 13 -6z m55 -70 c0 -8 -6 1 -13 20 -7 19 -13 42 -13 50 0 8 6 -1 13 -20 7 -19 13 -42 13 -50z m59 -17 c-4 -3 -7 0 -7 7 0 7 3 10 7 7 3 -4 3 -10 0 -14z m-50 -20 c-4 -3 -7 0 -7 7 0 7 3 10 7 7 3 -4 3 -10 0 -14z m137 -18 c15 -3 26 -8 23 -11 -6 -7 -96 17 -103 27 -2 4 8 4 23 -1 15 -4 41 -11 57 -15z m209 -12 c-7 -2 -19 -2 -25 0 -7 3 -2 5 12 5 14 0 19 -2 13 -5z m-70 -10 c-18 -2 -48 -2 -65 0 -18 2 -4 4 32 4 36 0 50 -2 33 -4z m744 0 c-4 -3 -10 -3 -14 0 -3 4 0 7 7 7 7 0 10 -3 7 -7z m-497 -17 c0 -3 -5 -8 -12 -12 -7 -4 -8 -3 -4 4 7 12 16 16 16 8z m-135 -16 c-3 -5 -14 -10 -23 -9 -14 0 -13 2 3 9 27 11 27 11 20 0z m-94 -23 c-25 -5 -63 -5 -90 0 -41 8 -36 9 44 9 79 0 84 -1 46 -9z m-64 -43 c-3 -3 -12 -4 -19 -1 -8 3 -5 6 6 6 11 1 17 -2 13 -5z m130 0 c-3 -3 -12 -4 -19 -1 -8 3 -5 6 6 6 11 1 17 -2 13 -5z m560 -51 c-4 -3 -7 0 -7 7 0 7 3 10 7 7 3 -4 3 -10 0 -14z m189 -45 c19 -23 19 -23 -2 -5 -11 9 -24 14 -29 10 -4 -5 -5 -2 -1 5 9 16 10 16 32 -10z m-379 -4 c-3 -3 -12 -4 -19 -1 -8 3 -5 6 6 6 11 1 17 -2 13 -5z"/>
</g>
<g id="layer111" fill="#737071" stroke="none">
<path d="M0 1000 l0 -1000 1000 0 1000 0 0 1000 0 1000 -1000 0 -1000 0 0 -1000z m545 816 c94 -28 511 -172 822 -285 121 -43 230 -81 243 -83 21 -3 28 -15 51 -90 15 -47 36 -99 48 -115 25 -35 59 -172 67 -273 9 -109 -19 -288 -56 -365 -31 -64 -130 -180 -183 -216 -26 -17 -23 -13 13 23 62 62 130 151 151 198 10 22 26 101 35 177 16 130 16 140 -1 227 -20 103 -45 174 -75 214 -11 15 -31 59 -44 96 l-23 69 -79 23 c-43 12 -248 90 -454 172 -206 83 -430 168 -496 191 l-122 42 -63 -66 c-35 -37 -75 -84 -88 -106 -13 -22 -26 -38 -29 -35 -7 8 53 97 88 131 17 17 40 45 52 63 24 39 36 39 143 8z m-170 -472 c110 -31 418 -153 500 -197 72 -38 110 -94 126 -183 29 -153 -67 -259 -247 -271 -89 -6 -203 17 -290 59 l-49 23 -81 270 c-105 351 -99 325 -71 325 12 0 63 -12 112 -26z m-114 -181 c59 -147 122 -349 129 -411 6 -61 14 -82 44 -126 51 -75 270 -284 338 -324 102 -60 190 -85 303 -86 55 -1 120 2 145 6 l45 7 -40 -15 c-22 -9 -87 -18 -145 -21 -126 -7 -197 8 -315 66 -101 50 -178 112 -279 226 -94 107 -136 189 -136 267 0 44 -53 253 -105 417 -9 31 4 26 16 -6z m900 -23 c53 -15 81 -50 86 -107 2 -29 -12 -124 -35 -243 -43 -221 -26 -200 -145 -185 -58 7 -58 7 -55 38 3 31 5 32 47 33 l44 1 34 169 c18 93 33 175 33 182 0 28 -41 53 -82 51 -34 -3 -42 0 -54 21 -7 14 -13 28 -14 32 -1 17 89 22 141 8z m389 -88 c49 -24 80 -75 80 -129 0 -93 -46 -142 -173 -183 -45 -15 -73 -30 -84 -47 -15 -23 -15 -26 4 -51 29 -39 72 -48 117 -27 35 17 38 17 56 0 30 -27 24 -44 -22 -65 -111 -51 -231 10 -231 116 0 74 45 119 153 150 67 19 110 57 110 97 0 42 -16 64 -54 77 -41 13 -94 -5 -119 -40 -15 -21 -19 -22 -46 -10 -17 7 -31 16 -31 21 0 17 65 82 95 95 42 19 104 17 145 -4z"/>
</g>
<g id="layer112" fill="#000000" stroke="none">
<path d="M0 1000 l0 -1000 1000 0 1000 0 0 1000 0 1000 -1000 0 -1000 0 0 -1000z m693 769 c100 -34 319 -111 487 -171 263 -95 403 -143 446 -153 6 -2 21 -38 33 -82 13 -43 34 -94 47 -113 86 -129 92 -497 9 -659 -27 -54 -147 -188 -199 -223 -19 -12 -10 1 24 34 68 68 140 161 162 210 9 21 24 101 34 177 16 138 16 140 -6 242 -25 112 -41 157 -71 198 -11 15 -30 58 -43 96 l-23 68 -68 19 c-37 10 -249 90 -470 178 -222 88 -450 175 -507 195 l-103 34 -63 -62 c-35 -34 -75 -82 -89 -107 -15 -24 -28 -39 -31 -32 -4 14 23 54 95 140 29 35 53 68 53 74 0 21 102 -1 283 -63z m-446 -196 c-4 -3 -7 0 -7 7 0 7 3 10 7 7 3 -4 3 -10 0 -14z m-50 -180 c-4 -3 -7 0 -7 7 0 7 3 10 7 7 3 -4 3 -10 0 -14z m178 -49 c110 -31 418 -153 500 -197 72 -38 110 -94 126 -183 29 -153 -67 -259 -247 -271 -89 -6 -203 17 -290 59 l-49 23 -81 270 c-105 351 -99 325 -71 325 12 0 63 -12 112 -26z m-39 -388 c34 -99 54 -176 54 -204 0 -72 35 -126 169 -265 198 -203 324 -268 521 -270 58 -1 123 2 145 5 35 6 33 4 -15 -12 -71 -24 -227 -26 -314 -4 -79 20 -197 82 -271 142 -86 69 -214 218 -247 287 -20 43 -28 75 -28 114 0 32 -14 103 -35 175 -43 150 -77 266 -82 286 -13 54 58 -123 103 -254z m825 184 c53 -15 81 -50 86 -107 2 -29 -12 -124 -35 -243 -43 -221 -26 -200 -145 -185 -58 7 -58 7 -55 38 3 31 5 32 47 33 l44 1 34 169 c18 93 33 175 33 182 0 28 -41 53 -82 51 -34 -3 -42 0 -54 21 -7 14 -13 28 -14 32 -1 17 89 22 141 8z m389 -88 c49 -24 80 -75 80 -129 0 -93 -46 -142 -173 -183 -45 -15 -73 -30 -84 -47 -15 -23 -15 -26 4 -51 29 -39 72 -48 117 -27 35 17 38 17 56 0 30 -27 24 -44 -22 -65 -111 -51 -231 10 -231 116 0 74 45 119 153 150 67 19 110 57 110 97 0 42 -16 64 -54 77 -41 13 -94 -5 -119 -40 -15 -21 -19 -22 -46 -10 -17 7 -31 16 -31 21 0 17 65 82 95 95 42 19 104 17 145 -4z m-160 -766 c0 -3 -5 -8 -12 -12 -7 -4 -8 -3 -4 4 7 12 16 16 16 8z m-73 -43 c-4 -3 -10 -3 -14 0 -3 4 0 7 7 7 7 0 10 -3 7 -7z"/>
<path d="M314 1286 c-5 -13 16 -86 94 -336 49 -154 42 -145 119 -171 140 -46 315 -22 378 53 32 38 49 97 41 143 -9 47 -75 119 -139 152 -51 25 -456 173 -476 173 -6 0 -14 -6 -17 -14z m231 -104 c234 -84 251 -91 298 -133 132 -116 44 -249 -164 -249 -52 0 -177 28 -185 42 -4 6 -35 99 -70 206 -59 182 -61 194 -41 189 12 -2 85 -27 162 -55z"/>
</g>
<g id="layer113" fill="#928f8f" stroke="none">
<path d="M0 1000 l0 -1000 1000 0 1000 0 0 1000 0 1000 -1000 0 -1000 0 0 -1000z m554 815 c81 -24 567 -193 886 -310 80 -29 156 -55 170 -56 21 -4 28 -15 51 -91 15 -47 36 -99 47 -115 83 -114 89 -480 11 -649 -23 -48 -223 -263 -235 -251 -3 3 16 25 42 49 72 67 159 178 177 228 15 42 27 111 42 251 4 38 -1 87 -15 158 -23 110 -40 159 -71 200 -11 15 -30 58 -43 96 l-23 68 -67 19 c-37 10 -239 86 -449 169 -385 153 -594 229 -626 229 -21 0 -131 -112 -154 -156 -16 -31 -47 -63 -47 -49 0 16 46 83 102 148 32 38 58 72 58 78 0 16 55 10 144 -16z m-314 -262 c-11 -17 -11 -17 -6 0 3 10 6 24 7 30 0 9 2 9 5 0 3 -7 0 -20 -6 -30z m-13 -40 c-4 -3 -7 0 -7 7 0 7 3 10 7 7 3 -4 3 -10 0 -14z m-30 -115 c-3 -8 -6 -5 -6 6 -1 11 2 17 5 13 3 -3 4 -12 1 -19z m178 -54 c110 -31 418 -153 500 -197 72 -38 110 -94 126 -183 29 -153 -67 -259 -247 -271 -89 -6 -203 17 -290 59 l-49 23 -81 270 c-105 351 -99 325 -71 325 12 0 63 -12 112 -26z m-158 -71 c-4 -3 -7 0 -7 7 0 7 3 10 7 7 3 -4 3 -10 0 -14z m10 -30 c-4 -3 -7 0 -7 7 0 7 3 10 7 7 3 -4 3 -10 0 -14z m39 -89 c66 -172 124 -360 124 -401 0 -71 41 -135 169 -266 64 -66 135 -132 157 -148 64 -44 173 -95 234 -110 57 -14 206 -17 275 -6 l40 6 -32 -14 c-48 -22 -185 -35 -259 -24 -96 14 -190 48 -269 99 -92 61 -133 97 -223 200 -91 103 -132 184 -132 258 0 34 -21 123 -60 259 -33 115 -60 212 -60 217 0 18 10 -1 36 -70z m895 -14 c53 -15 81 -50 86 -107 2 -29 -12 -124 -35 -243 -43 -221 -26 -200 -145 -185 -58 7 -58 7 -55 38 3 31 5 32 47 33 l44 1 34 169 c18 93 33 175 33 182 0 28 -41 53 -82 51 -34 -3 -42 0 -54 21 -7 14 -13 28 -14 32 -1 17 89 22 141 8z m389 -88 c49 -24 80 -75 80 -129 0 -93 -46 -142 -173 -183 -45 -15 -73 -30 -84 -47 -15 -23 -15 -26 4 -51 29 -39 72 -48 117 -27 35 17 38 17 56 0 30 -27 24 -44 -22 -65 -111 -51 -231 10 -231 116 0 74 45 119 153 150 67 19 110 57 110 97 0 42 -16 64 -54 77 -41 13 -94 -5 -119 -40 -15 -21 -19 -22 -46 -10 -17 7 -31 16 -31 21 0 17 65 82 95 95 42 19 104 17 145 -4z m-100 -732 c-33 -26 -49 -26 -19 0 13 10 29 19 34 19 6 1 -1 -8 -15 -19z m-66 -41 c-8 -14 -84 -49 -104 -48 -8 0 3 7 25 16 22 9 49 22 60 30 24 16 28 16 19 2z"/>
</g>
<g id="layer114" fill="#f7e3dd" stroke="none">
<path d="M0 1000 l0 -1000 1000 0 1000 0 0 1000 0 1000 -1000 0 -1000 0 0 -1000z m496 835 c27 -4 54 -11 59 -15 6 -4 24 -10 40 -14 33 -8 220 -74 625 -222 227 -82 362 -129 406 -139 6 -2 21 -38 33 -82 13 -43 34 -94 47 -113 36 -54 77 -229 77 -325 -1 -119 -28 -260 -62 -330 -40 -80 -161 -203 -278 -283 -97 -66 -161 -93 -276 -117 -255 -55 -498 61 -728 345 -62 76 -89 139 -92 211 -2 35 -15 105 -30 154 -22 72 -65 221 -112 385 -22 77 -22 88 5 191 32 124 62 185 127 259 27 30 57 68 67 83 9 16 23 26 30 24 8 -3 35 -9 62 -12z"/>
<path d="M384 1756 c-28 -29 -64 -73 -80 -97 -16 -24 -32 -46 -35 -49 -8 -7 -34 -81 -53 -152 -18 -64 -21 -134 -6 -143 6 -3 10 -14 10 -24 0 -9 17 -59 39 -111 67 -167 143 -405 136 -432 -4 -16 3 -45 21 -84 21 -47 54 -86 163 -194 118 -118 147 -141 221 -178 108 -54 183 -72 290 -72 176 1 280 43 439 178 59 50 154 176 174 232 18 49 37 191 37 284 0 98 -38 250 -77 308 -13 20 -35 67 -47 104 l-23 67 -67 19 c-37 10 -181 63 -319 117 -544 214 -729 282 -758 280 -8 0 -37 -24 -65 -53z m-9 -412 c110 -31 418 -153 500 -197 72 -38 110 -94 126 -183 29 -153 -67 -259 -247 -271 -89 -6 -203 17 -290 59 l-49 23 -81 270 c-105 351 -99 325 -71 325 12 0 63 -12 112 -26z m786 -204 c53 -15 81 -50 86 -107 2 -29 -12 -124 -35 -243 -43 -221 -26 -200 -145 -185 -58 7 -58 7 -55 38 3 31 5 32 47 33 l44 1 34 169 c18 93 33 175 33 182 0 28 -41 53 -82 51 -34 -3 -42 0 -54 21 -7 14 -13 28 -14 32 -1 17 89 22 141 8z m389 -88 c49 -24 80 -75 80 -129 0 -93 -46 -142 -173 -183 -45 -15 -73 -30 -84 -47 -15 -23 -15 -26 4 -51 29 -39 72 -48 117 -27 35 17 38 17 56 0 30 -27 24 -44 -22 -65 -111 -51 -231 10 -231 116 0 74 45 119 153 150 67 19 110 57 110 97 0 42 -16 64 -54 77 -41 13 -94 -5 -119 -40 -15 -21 -19 -22 -46 -10 -17 7 -31 16 -31 21 0 17 65 82 95 95 42 19 104 17 145 -4z"/>
<path d="M314 1285 c-3 -8 27 -119 68 -247 l73 -233 65 -22 c89 -30 226 -32 304 -2 88 32 137 112 122 194 -9 47 -75 119 -139 152 -51 25 -456 173 -476 173 -6 0 -14 -7 -17 -15z m231 -103 c234 -84 251 -91 298 -133 133 -117 47 -248 -163 -249 -61 0 -166 22 -182 38 -6 6 -39 99 -74 207 -58 185 -61 197 -41 192 12 -2 85 -27 162 -55z"/>
</g>
<g id="layer115" fill="#fffefe" stroke="none">
<path d="M0 1000 l0 -1000 1000 0 1000 0 0 1000 0 1000 -1000 0 -1000 0 0 -1000z m515 834 c22 -4 45 -9 50 -13 6 -3 28 -11 50 -17 66 -19 349 -120 370 -132 33 -20 572 -211 641 -227 6 -2 21 -38 33 -82 13 -43 34 -94 46 -113 13 -19 27 -48 31 -65 4 -16 10 -32 14 -35 7 -5 27 -107 37 -185 7 -49 -13 -220 -34 -295 -23 -83 -64 -147 -150 -231 -106 -104 -226 -184 -332 -222 -78 -27 -99 -30 -216 -31 -156 -1 -223 17 -337 95 -105 71 -149 110 -232 205 -107 122 -137 179 -140 268 -2 41 -14 107 -30 156 -14 47 -35 114 -46 150 -11 36 -29 99 -40 140 -11 41 -22 80 -23 85 -29 89 -29 96 -2 199 34 131 63 187 136 266 32 36 59 70 59 77 0 15 20 22 50 18 14 -3 43 -7 65 -11z"/>
<path d="M387 1752 c-78 -79 -120 -146 -146 -233 -13 -41 -27 -84 -32 -97 -12 -31 -12 -99 1 -107 6 -3 10 -14 10 -24 0 -9 17 -59 39 -111 66 -163 143 -407 136 -430 -4 -13 1 -38 14 -65 12 -25 21 -50 21 -55 0 -6 59 -71 130 -144 122 -124 138 -137 233 -185 130 -65 218 -85 341 -76 116 8 192 34 291 101 87 58 141 109 207 194 65 83 78 120 95 269 14 125 14 143 -1 231 -23 124 -33 157 -63 202 -13 20 -35 67 -47 104 l-23 67 -67 19 c-37 10 -181 63 -320 118 -139 55 -257 100 -263 100 -6 0 -43 14 -84 31 -92 38 -297 112 -365 132 l-51 15 -56 -56z m-12 -408 c110 -31 418 -153 500 -197 72 -38 110 -94 126 -183 29 -153 -67 -259 -247 -271 -89 -6 -203 17 -290 59 -48 23 -49 24 -73 103 -13 44 -27 82 -32 85 -4 3 -10 21 -13 40 -2 19 -25 107 -51 195 -25 88 -49 168 -51 178 -7 24 23 22 131 -9z m786 -204 c53 -15 81 -50 86 -107 2 -29 -12 -124 -35 -243 -43 -221 -26 -200 -145 -185 -58 7 -58 7 -55 38 3 31 5 32 47 33 l44 1 34 169 c18 93 33 175 33 182 0 28 -41 53 -82 51 -34 -3 -42 0 -54 21 -7 14 -13 28 -14 32 -1 17 89 22 141 8z m389 -88 c49 -24 80 -75 80 -129 0 -93 -46 -142 -173 -183 -45 -15 -73 -30 -84 -47 -15 -23 -15 -26 4 -51 29 -39 72 -48 117 -27 35 17 38 17 56 0 30 -27 24 -44 -22 -65 -111 -51 -231 10 -231 116 0 74 45 119 153 150 67 19 110 57 110 97 0 42 -16 64 -54 77 -41 13 -94 -5 -119 -40 -15 -21 -19 -22 -46 -10 -17 7 -31 16 -31 21 0 17 65 82 95 95 42 19 104 17 145 -4z"/>
<path d="M314 1286 c-5 -14 51 -212 66 -231 8 -10 69 -201 75 -232 1 -10 8 -17 14 -15 6 1 11 -2 11 -8 0 -5 7 -7 15 -4 8 4 15 2 15 -3 0 -13 52 -18 190 -17 97 0 132 4 157 17 63 33 102 113 89 182 -9 47 -75 119 -139 152 -51 25 -456 173 -476 173 -6 0 -14 -6 -17 -14z m231 -104 c234 -84 251 -91 298 -133 56 -48 74 -94 57 -144 -11 -33 -64 -85 -88 -85 -6 0 -12 -6 -14 -12 -4 -10 -35 -13 -114 -13 -89 1 -117 5 -156 22 l-47 21 -35 114 c-20 63 -36 121 -36 129 0 9 -11 48 -25 88 l-25 73 23 -5 c12 -2 85 -27 162 -55z"/>
</g>


</svg>